DataType=double
version=3
OpenSimVersion=4.5
endheader
time	ground_force_1_vx	ground_force_1_vy	ground_force_1_vz	ground_force_1_px	ground_force_1_py	ground_force_1_pz	ground_moment_1_mx	ground_moment_1_my	ground_moment_1_mz	ground_force_2_vx	ground_force_2_vy	ground_force_2_vz	ground_force_2_px	ground_force_2_py	ground_force_2_pz	ground_moment_2_mx	ground_moment_2_my	ground_moment_2_mz
0	4.908273922	658.4854501999999	25.96199006	0.7679204101906832	0	0.4238057965232715	0	-5.921361496881261	0	0	0	0	0.8049871033955318	0	0.7420771517268261	0	0	0
0.005	4.626406675	659.3587865	26.80350432	0.7637805390798488	0	0.4243031633059032	0	-4.108076224402626	0	0	0	0	0.8049871033955318	0	0.7420771517268261	0	0	0
0.01	5.029074147	660.7734358	27.77806046	0.7590834870496274	0	0.4246892292260003	0	-2.592932731630786	0	0	0	0	0.8049871033955318	0	0.7420771517268261	0	0	0
0.015	6.277326643	662.6693074999999	28.73296581	0.7539536471948013	0	0.4249659536451874	0	-1.489554066121437	0	0	0	0	0.8049871033955318	0	0.7420771517268261	0	0	0
0.02	8.202590984	664.8958568	29.47566055	0.7483640716097018	0	0.4251714239307472	0	-0.7746651520621017	0	0	0	0	0.8049871033955318	0	0.7420771517268261	0	0	0
0.025	10.56868828	667.3109286	29.96667961	0.7424675344037769	0	0.4253380321638001	0	-0.3499669877453062	0	0	0	0	0.8049871033955318	0	0.7420771517268261	0	0	0
0.03	13.26149821	669.8961724	30.36071561	0.7365789494069427	0	0.4254585090270521	0	-0.177233456178377	0	0	0	0	0.8049871033955318	0	0.7420771517268261	0	0	0
0.035	16.1316851	672.623684	30.82442468	0.7307616862856156	0	0.4255346262056915	0	-0.1809585745668869	0	0	0	0	0.8049871033955318	0	0.7420771517268261	0	0	0
0.04	19.02539671	675.3538783	31.34889533	0.7248198402714962	0	0.4256095121554572	0	-0.2647012222782386	0	0	0	0	0.8049871033955318	0	0.7420771517268261	0	0	0
0.045	21.9998475	677.9954119	31.80599415	0.7187448111577883	0	0.4257110719341675	0	-0.3982527964767382	0	0	0	0	0.8049871033955318	0	0.7420771517268261	0	0	0
0.05	25.13628041	680.6044842	32.17020587	0.7127052764150764	0	0.4258135144952319	0	-0.5418694396960317	0	0	0	0	0.8049871033955318	0	0.7420771517268261	0	0	0
0.055	28.31853175	683.2338473999999	32.59582686	0.7067531010886906	0	0.4258862868693776	0	-0.6698579204152146	0	0	0	0	0.8049871033955318	0	0.7420771517268261	0	0	0
0.06	31.4887822	685.749683	33.21191643	0.700846681123269	0	0.4259515120377925	0	-0.7944753790941537	0	0	0	0	0.8049871033955318	0	0.7420771517268261	0	0	0
0.065	34.81968175	688.0129705000001	33.94937852	0.695013988941643	0	0.4260455394942698	0	-0.919980173802931	0	0	0	0	0.8049871033955318	0	0.7420771517268261	0	0	0
0.07000000000000001	38.37442298	690.1505654	34.59224229	0.689261776690138	0	0.4261400247643234	0	-1.040256758177901	0	0	0	0	0.8049871033955318	0	0.7420771517268261	0	0	0
0.075	41.98193527	692.3032514	35.00856177	0.6835586267319244	0	0.4261990578227649	0	-1.10570929470156	0	0	0	0	0.8049871033955318	0	0.7420771517268261	0	0	0
0.08	45.57039779	694.4161048	35.25151957	0.6779428642503755	0	0.426222500359248	0	-1.112916353500582	0	0	0	0	0.8049871033955318	0	0.7420771517268261	0	0	0
0.08500000000000001	49.24949881	696.3262334	35.48203939	0.6724600216828486	0	0.4262417947304225	0	-1.12767419415303	0	0	0	0	0.8049871033955318	0	0.7420771517268261	0	0	0
0.09	53.01513697	697.9683889	35.77291271	0.6670108247246735	0	0.4262725863957837	0	-1.151838985650944	0	0	0	0	0.8049871033955318	0	0.7420771517268261	0	0	0
0.095	56.74562798	699.3911356	36.02842489	0.6614955876605196	0	0.4262987464043223	0	-1.137887711671598	0	0	0	0	0.8049871033955318	0	0.7420771517268261	0	0	0
0.1	60.42926596	700.5713233	36.15412046	0.6559685446141205	0	0.4263181934948304	0	-1.0654684065637	0	0	0	0	0.8049871033955318	0	0.7420771517268261	0	0	0
0.105	64.14966901	701.3642517	36.2075152	0.6505420048264459	0	0.426339321655938	0	-0.9562687227881428	0	0	0	0	0.8049871033955318	0	0.7420771517268261	0	0	0
0.11	67.88969468000001	701.6125337	36.38757396	0.6451862198145935	0	0.426375633476895	0	-0.8504662669887342	0	0	0	0	0.8049871033955318	0	0.7420771517268261	0	0	0
0.115	71.60697121	701.3122974	36.78089152	0.6398571808037168	0	0.4264127855805131	0	-0.7717207861365765	0	0	0	0	0.8049871033955318	0	0.7420771517268261	0	0	0
0.12	75.36885196999999	700.5056971	37.21589842	0.634582245912808	0	0.4264219619138316	0	-0.6977466378795532	0	0	0	0	0.8049871033955318	0	0.7420771517268261	0	0	0
0.125	79.24123779999999	699.09474	37.49320557	0.6293581490844422	0	0.4264223962770427	0	-0.6055671130836968	0	0	0	0	0.8049871033955318	0	0.7420771517268261	0	0	0
0.13	83.16889965	697.0115109	37.58202654	0.6240658443019672	0	0.4264133273741977	0	-0.499924251679337	0	0	0	0	0.8049871033955318	0	0.7420771517268261	0	0	0
0.135	87.11837401	694.2236348	37.64974436	0.6186297162804958	0	0.4264067953699023	0	-0.4200949515270649	0	0	0	0	0.8049871033955318	0	0.7420771517268261	0	0	0
0.14	91.15783774000001	690.7287877	37.7535898	0.6131371204053799	0	0.4264049613111802	0	-0.4077026450581496	0	0	0	0	0.8049871033955318	0	0.7420771517268261	0	0	0
0.145	95.27978040000001	686.4543674	37.75366668	0.6076454733524125	0	0.4264280063093551	0	-0.4309170513128375	0	-1.927236064	11.90877516	-1.252246009	1.012911757504124	0	0.5475761829974778	0	-0.2552786486983269	0
0.15	99.39489879	681.3138484	37.47756639	0.6021116877783038	0	0.4264916368709786	0	-0.4351223127042703	0	1.838868244	24.40382715	-0.286326241	0.9933536694978491	0	0.5425275120712281	0	-0.2552032693378323	0
0.155	103.5140504	675.2062595	36.88789041	0.5965643606416107	0	0.4265752625036656	0	-0.427040267684867	0	7.38632307	42.79655303	1.795319431	0.9817119093792814	0	0.5410352023911228	0	-0.1811473614615927	0
0.16	107.678893	667.9061668000001	36.12337394	0.591103674604312	0	0.4266730790694955	0	-0.4387805435778578	0	14.2561878	67.77117263	5.355957502	0.9732866144910652	0	0.5409403011897898	0	0.02281867479157562	0
0.165	111.7783836	659.1223608	35.24161803	0.5857938043791835	0	0.4267575477304792	0	-0.4715070190028854	0	20.73251076	99.19617359	10.50579029	0.9674022782649802	0	0.5415366081749989	0	0.2813635590966082	0
0.17	115.648494	648.4808124	34.19778868	0.5806310862628086	0	0.4268326038680427	0	-0.4853883521712685	0	24.48889185	135.7686793	16.89084037	0.9633813107405244	0	0.5422678023992304	0	0.4994420050993109	0
0.175	119.259932	635.6278969	32.89156155	0.575621657085764	0	0.4268866777470988	0	-0.4652614496883034	0	24.05006105	175.2505307	23.60727052	0.9606716377648192	0	0.5427544452535612	0	0.5883095719692562	0
0.18	122.5789334	620.1834996	31.34445343	0.5707248128986262	0	0.4269269594393558	0	-0.4411516454157622	0	19.32206035	215.2624691	29.59072586	0.958867765865365	0	0.5430726792839333	0	0.5691957027615118	0
0.185	125.3631321	601.8058896	29.68197187	0.5658730034437273	0	0.4269636026323057	0	-0.4357828580419199	0	11.01458143	253.9101609	34.04201705	0.9576984516242115	0	0.5433587090258589	0	0.4923810639017931	0
0.19	127.3056818	580.3659178	27.9733166	0.561175366224296	0	0.4269685350406706	0	-0.4493900264178041	0	0.401271839	290.0333239	36.70406026	0.957233610887287	0	0.5437862410595088	0	0.2996295987323823	0
0.195	128.1923601	555.8957101	26.1499352	0.5567979144566807	0	0.426921451759375	0	-0.4652305326501667	0	-10.73806274	323.1365994	37.56020539	0.957360626423948	0	0.5444217446989833	0	0.06649153737999569	0
0.2	127.8516839	528.5127974	24.05935359	0.5527501071417616	0	0.4268229416768099	0	-0.465842461394133	0	-20.91900219	353.1398884	36.5237222	0.9573381630953059	0	0.5452757399551844	0	-0.03401155449589854	0
0.205	126.0834687	498.4277008	21.65347635	0.5489009815320792	0	0.4267034463218959	0	-0.44739880047839	0	-29.78318307	380.0552381	33.45014878	0.9564756745775218	0	0.5463265173402927	0	-0.04924087749557593	0
0.21	122.7098379	466.1316894	19.0088122	0.5452503435040379	0	0.4265460489570368	0	-0.4270660071000068	0	-37.6782924	403.9764478	28.29059858	0.9549167362735008	0	0.5475286423570183	0	-0.03999853802236686	0
0.215	117.6679196	432.3109255	16.20692444	0.5419900307079983	0	0.4263041956428749	0	-0.4112751880575471	0	-44.6630208	425.3861411	21.16611743	0.9530335214738193	0	0.5488708742550845	0	-0.008641068275058839	0
0.22	111.0635156	397.6028306	13.24895898	0.5391839930689555	0	0.4259846651779948	0	-0.3881324837595868	0	-50.4234418	445.2883135	12.40201799	0.9505437224780131	0	0.5503581760389542	0	0.07272788087148863	0
0.225	103.2055794	362.6335971	10.13420972	0.5366637914572714	0	0.4256282188822451	0	-0.354202921716277	0	-54.99791845	464.9613863	2.537658655	0.9471325724116543	0	0.5519119447757472	0	0.2890714857949888	0
0.23	94.53108729	328.0972874	6.971479262	0.534326374515664	0	0.4252244690224035	0	-0.3048481067054067	0	-59.11766867	485.8160134	-7.683778901	0.9433375101876188	0	0.5534857327886376	0	0.5732435045532007	0
0.235	85.43769312000001	294.5957018	3.980781072	0.5323755535375679	0	0.4247086472412859	0	-0.2301873860810022	0	-63.66616945	509.2044591	-17.42827922	0.9399289414569024	0	0.5551539725813982	0	0.7723586802008926	0
0.24	76.21081089	262.4439105	1.395883284	0.5310561058632441	0	0.4240456108649486	0	-0.1445199707781031	0	-68.85565518	535.6070783	-25.98809818	0.9369939796758299	0	0.5568612677716196	0	0.8671789693139069	0
0.245	67.14261605999999	231.754836	-0.602668273	0.5302438429144321	0	0.4232733475290037	0	-0.0865991219104629	0	-74.13622094999999	564.2324999	-32.85048847	0.9341465153806903	0	0.5583893063468297	0	0.9060372748687238	0
0.25	58.56525443	202.6342662	-1.965248099	0.5294887363522781	0	0.4224315834948837	0	-0.09133042934723035	0	-78.95463212	593.7309807	-37.84714298	0.9311882189271135	0	0.5595556899492463	0	0.9028771375872795	0
0.255	50.64480991	175.1774645	-2.754438777	0.5282472550230216	0	0.4215937646394895	0	-0.1504015574227192	0	-83.22918925	623.1587436999999	-41.13001354	0.9282392237203902	0	0.5604004853162798	0	0.824991421212391	0
0.26	43.32397135	149.5230783	-3.097439464	0.5262679864841995	0	0.4207795209156068	0	-0.2046083315332548	0	-86.96417291	651.8576118	-43.00668528	0.9254641600692144	0	0.5610360291507991	0	0.6340579426520936	0
0.265	36.55258238	125.861777	-3.098712679	0.5238912311995925	0	0.4199190939198361	0	-0.2329947710049686	0	-89.87417313	678.9019906	-43.85217379	0.9227597026765215	0	0.5614613715438419	0	0.423184260454466	0
0.27	30.36503542	104.2768505	-2.815717811	0.521060547269054	0	0.4190047085409692	0	-0.2628736282439452	0	-91.70785127000001	703.295566	-44.09704707	0.9197868011658431	0	0.5616425806378339	0	0.2826281644052715	0
0.275	24.74141855	84.70235658999999	-2.305271808	0.5164656318393157	0	0.4182331117005532	0	-0.312896261198768	0	-92.59436273	724.5382834	-44.14421473	0.9163979881747363	0	0.5616297472273994	0	0.1675517131405622	0
0.28	19.55850658	67.13917410000001	-1.67540364	0.5090961822634399	0	0.4177865027510675	0	-0.3738853383673258	0	-92.78287038000001	742.6466986	-44.17140152	0.9128677570105455	0	0.5615091188347453	0	0.03400215233368531	0
0.285	14.69738579	51.73573055	-1.06687815	0.500398683708063	0	0.4175089343985238	0	-0.4037315820935719	0	-92.39675597	757.8272674999999	-44.05977682	0.9094151953155682	0	0.5613200890364156	0	-0.1297152549950997	0
0.29	10.14766791	38.53939443	-0.555324488	0.4921352622972721	0	0.4174113688654369	0	-0.3893144065762228	0	-91.49571939	770.3587333	-43.60238814	0.905869386130341	0	0.5610724233158371	0	-0.2777646472073823	0
